<?xml version="1.0" encoding="UTF-8"?>
<svg version="1.1" xmlns="http://www.w3.org/2000/svg" width="770" height="433">
<path d="M0 0 C56.1 0 112.2 0 170 0 C168.3659597 4.08510074 166.6052648 7.77413599 164.54296875 11.64453125 C164.20387482 12.28238052 163.86478088 12.9202298 163.51541138 13.57740784 C162.40873788 15.65718536 161.29824235 17.73489307 160.1875 19.8125 C159.41353143 21.26441949 158.63968825 22.71640583 157.8659668 24.16845703 C152.3474639 34.51616251 146.77954085 44.83672039 141.1796875 55.140625 C137.74688682 61.45868931 134.34219752 67.79176041 130.9375 74.125 C126.14163878 83.04158333 121.31567573 91.94099334 116.46191406 100.82617188 C107.29573619 117.60760791 98.21321635 134.43337754 89.19995117 151.29736328 C88.60931885 152.40192871 88.01868652 153.50649414 87.41015625 154.64453125 C86.89590088 155.60721924 86.38164551 156.56990723 85.85180664 157.56176758 C84.20561696 160.61823287 82.54728868 163.66756615 80.88426208 166.71488953 C80.34409675 167.70480235 79.80393141 168.69471518 79.24739742 169.71462536 C78.83575627 170.46879899 78.42411512 171.22297262 78 172 C60.57095301 172.11700752 43.1420293 172.2050731 25.71267891 172.25906086 C17.61919112 172.28479907 9.52594794 172.31986511 1.43261719 172.37719727 C-5.62481232 172.42716723 -12.68206459 172.45932286 -19.7396661 172.47044247 C-23.47375066 172.47693843 -27.20732838 172.49211254 -30.94124985 172.52865028 C-35.11844738 172.56919085 -39.29477413 172.56994077 -43.47216797 172.56762695 C-45.31176338 172.59459152 -45.31176338 172.59459152 -47.18852234 172.62210083 C-56.37927108 172.56715318 -62.59819955 170.2779365 -69.9375 164.8125 C-74.73831023 158.26594059 -75.65440804 151.16017705 -74.62231445 143.21899414 C-72.58034641 132.6566761 -66.51745729 122.99595798 -61.4375 113.625 C-60.72174121 112.2948259 -60.00641544 110.96441871 -59.29150391 109.63378906 C-54.23064941 100.22625142 -49.11773013 90.84683987 -43.98828125 81.4765625 C-40.65196617 75.37428069 -37.35624516 69.25033698 -34.0625 63.125 C-29.55510058 54.74264526 -25.03616597 46.36682861 -20.5 38 C-13.64518029 25.34494822 -6.82339659 12.67202225 0 0 Z " fill="#000000" transform="translate(500,133)"/>
<path d="M0 0 C1.24534232 0.00092179 2.49068464 0.00184359 3.77376461 0.00279331 C4.46473938 0.00193889 5.15571416 0.00108446 5.86762756 0.00020415 C8.20004874 -0.00145264 10.53239917 0.00407393 12.8648138 0.00952244 C14.52996475 0.00980429 16.19511582 0.00964661 17.86026669 0.00907993 C22.3951976 0.00879189 26.9301023 0.01468967 31.46502709 0.02165389 C36.19895023 0.02788635 40.9328739 0.02849114 45.6668005 0.0296793 C54.63763754 0.03279293 63.60846245 0.04100675 72.57929415 0.05102879 C82.78952046 0.06218893 92.99974733 0.06770012 103.20997822 0.07272422 C124.21919777 0.08318934 145.22840639 0.1007894 166.23761654 0.12304783 C164.98995505 3.95925794 163.67433148 7.43987608 161.72589779 10.97461033 C160.97167538 12.35350437 160.97167538 12.35350437 160.20221615 13.76025486 C159.65702328 14.74622654 159.11183041 15.73219822 158.55011654 16.74804783 C157.36970444 18.90390124 156.19004761 21.06016832 155.01105404 23.21679783 C154.39327084 24.34472752 153.77548763 25.4726572 153.13898373 26.63476658 C150.27073416 31.89690702 147.44740676 37.18281802 144.62485409 42.46954441 C138.8685609 53.24892985 133.05353827 63.99496693 127.19074154 74.71679783 C119.48033411 88.81994625 111.8542658 102.96910841 104.23761654 117.12304783 C99.66083547 125.6265928 95.08105356 134.12848606 90.48761654 142.62304783 C90.00550716 143.51636814 89.52339779 144.40968845 89.02667904 145.33007908 C85.7353863 151.41105041 82.39030507 157.4611203 79.02960873 163.5039072 C78.56767117 164.33492954 78.1057336 165.16595188 77.62979794 166.02215672 C76.4992713 168.05589867 75.36853928 170.08952613 74.23761654 172.12304783 C56.92166125 172.21662328 39.60578525 172.28709157 22.2896347 172.33029652 C14.24885305 172.35089343 6.20822879 172.37895882 -1.83245182 172.42480564 C-8.84335933 172.46476167 -15.8541528 172.4905015 -22.86517102 172.49940181 C-26.57511078 172.50460181 -30.28472439 172.51676301 -33.99455929 172.54596806 C-38.14314258 172.57836006 -42.29116424 172.57900164 -46.4398737 172.57714939 C-47.66051517 172.59153049 -48.88115665 172.6059116 -50.13878727 172.62072849 C-58.65300183 172.57965644 -64.40243764 170.83590301 -71.57488346 166.37304783 C-77.53519224 160.24244451 -78.21490603 154.37282942 -78.29363346 145.97851658 C-76.91539001 135.97611741 -71.93022311 127.12821858 -67.26238346 118.31054783 C-66.64141521 117.12690019 -66.02081572 115.94305903 -65.40056705 114.75903416 C-58.31058245 101.25827297 -51.09071294 87.8210147 -43.44988346 74.62304783 C-40.98665309 70.3514336 -38.68823499 66.04780106 -36.51238346 61.62304783 C-31.58750634 51.61659295 -26.1405156 41.89090774 -20.76238346 32.12304783 C-19.75966209 30.2988935 -18.75705533 28.47467617 -17.75457096 26.65039158 C-15.89964533 23.27567394 -14.04256773 19.90215314 -12.18425846 16.52929783 C-9.69455519 12.00678861 -7.23211614 7.46997879 -4.78582096 2.92382908 C-3.20526563 0.14277561 -3.20526563 0.14277561 0 0 Z " fill="#000000" transform="translate(391.76238346099854,13.876952171325684)"/>
<path d="M0 0 C1.22051056 -0.00014603 2.44102112 -0.00029205 3.69851685 -0.0004425 C7.01815085 0.00013147 10.33772133 0.00511882 13.6573441 0.01213145 C17.13666802 0.018417 20.61599294 0.01897288 24.09532166 0.02015686 C30.67177511 0.02325492 37.24821177 0.03144761 43.82465786 0.04150635 C51.31686195 0.05271503 58.80906688 0.05818988 66.30127728 0.06320179 C81.70208192 0.07363161 97.10286984 0.0912013 112.50366211 0.11352539 C111.75309765 4.30121119 110.47517185 7.40816478 108.44116211 11.16430664 C108.13383652 11.73574402 107.82651093 12.3071814 107.50987244 12.89593506 C106.51425302 14.74287125 105.50923017 16.58448985 104.50366211 18.42602539 C103.81516761 19.69784953 103.12709952 20.96990461 102.43945312 22.2421875 C98.14788293 30.16662531 93.7869717 38.05110131 89.33569336 45.88696289 C84.83816104 53.80798997 80.59073376 61.85086337 76.37866211 69.92602539 C72.37957653 77.58593452 68.32093497 85.21073396 64.19116211 92.80102539 C63.71211426 93.68443604 63.23306641 94.56784668 62.73950195 95.47802734 C61.83355381 97.13684316 60.90942476 98.78593092 59.96281624 100.42188454 C58.46251936 103.05219286 58.46251936 103.05219286 57.48470879 105.75435448 C56.14274025 108.80515736 54.92570854 110.8041184 52.50366211 113.11352539 C47.13614843 114.60786204 41.82551133 114.37917154 36.30883789 114.2487793 C34.64295116 114.24595711 32.97705199 114.24754473 31.31117249 114.25320435 C26.7961155 114.25607123 22.28372053 114.19732886 17.76928186 114.12746477 C13.04887081 114.06490625 8.32839712 114.05907411 3.6076355 114.04721069 C-5.32820128 114.0161419 -14.26281311 113.9340999 -23.1981107 113.8337158 C-33.37200619 113.72190042 -43.54596052 113.66694939 -53.7203176 113.61676145 C-74.64634114 113.51226441 -95.57126232 113.3363989 -116.49633789 113.11352539 C-115.13582535 108.90842063 -113.59115148 105.15187905 -111.48461914 101.26196289 C-110.89100586 100.16239258 -110.29739258 99.06282227 -109.68579102 97.92993164 C-108.75669922 96.22643555 -108.75669922 96.22643555 -107.80883789 94.48852539 C-107.2087793 93.37606445 -106.6087207 92.26360352 -105.99047852 91.11743164 C-103.00750221 85.61286313 -99.95938952 80.16041851 -96.78149414 74.76586914 C-94.18956318 70.35700802 -91.82266111 65.91402459 -89.62133789 61.30102539 C-83.05227536 47.97305233 -75.96201159 36.70780952 -65.49633789 26.11352539 C-64.9149707 25.4599707 -64.33360352 24.80641602 -63.73461914 24.13305664 C-47.54652267 6.3139177 -23.12133174 -0.07314446 0 0 Z " fill="#000000" transform="translate(460.496337890625,310.886474609375)"/>
<path d="M0 0 C1.23972565 -0.00014603 2.47945129 -0.00029205 3.75674438 -0.0004425 C7.13847766 0.00013279 10.5201491 0.00513134 13.90187144 0.01213145 C17.44260013 0.01840328 20.98332973 0.01897181 24.52406311 0.02015686 C31.22099728 0.02325891 37.91791504 0.03145707 44.614842 0.04150635 C52.24242645 0.05270252 59.87001171 0.05818676 67.49760234 0.06320179 C83.1807841 0.07364067 98.8639495 0.09121823 114.54711914 0.11352539 C114.87711914 0.77352539 115.20711914 1.43352539 115.54711914 2.11352539 C114.4310414 4.33660708 113.26685808 6.42610722 111.98461914 8.55102539 C106.56027475 17.70265441 101.55227022 27.0469959 96.70117188 36.5144043 C90.08915993 49.41492767 83.17629306 62.10917648 75.93603516 74.66967773 C74.56893788 77.07513453 73.25713836 79.50560427 71.94555664 81.94165039 C68.91333835 87.41184224 64.91557658 91.67127644 60.54711914 96.11352539 C59.58805664 97.09192383 59.58805664 97.09192383 58.60961914 98.09008789 C45.71408904 110.28711012 28.14064885 113.7640991 10.99267578 113.56762695 C9.61117079 113.56649455 8.2296634 113.56713998 6.84815979 113.56939697 C3.15059975 113.57052975 -0.54642552 113.547258 -4.24386287 113.51910114 C-8.12751748 113.49384362 -12.01118864 113.49172654 -15.89491272 113.48699951 C-23.22563476 113.47464042 -30.55611396 113.44191619 -37.88672978 113.40160155 C-46.24238599 113.35666175 -54.59805472 113.33484137 -62.95380199 113.31481981 C-80.12030132 113.27317592 -97.28656529 113.20296378 -114.45288086 113.11352539 C-112.81607615 108.92337451 -110.88359183 104.96687003 -108.77709961 100.99633789 C-108.23455284 99.96771889 -108.23455284 99.96771889 -107.68104553 98.9183197 C-106.50395993 96.69004579 -105.32253704 94.46411291 -104.14038086 92.23852539 C-103.73815308 91.47941864 -103.33592529 90.72031189 -102.92150879 89.9382019 C-96.43806667 77.70912759 -89.76100422 65.61018983 -82.86206055 53.60986328 C-81.31033551 50.86100873 -79.81933988 48.0829914 -78.32788086 45.30102539 C-66.63797919 23.79955092 -45.72358463 8.92803563 -22.62866211 1.91040039 C-15.05489357 0.00997138 -7.77643634 -0.02405281 0 0 Z " fill="#000000" transform="translate(346.452880859375,191.886474609375)"/>
<path d="M0 0 C1.24287781 -0.00584106 2.48575562 -0.01168213 3.76629639 -0.0177002 C7.17057547 -0.02632921 10.57187437 -0.00372343 13.97577453 0.03373289 C17.54650871 0.06642149 21.11720832 0.06164091 24.68806458 0.06167603 C30.68961925 0.0672397 36.69055263 0.09953972 42.69189453 0.14941406 C49.61004862 0.20674197 56.52760901 0.22972276 63.44598693 0.23229825 C70.83189449 0.23523496 78.21758625 0.26110183 85.60341096 0.29486513 C87.72045005 0.30318616 89.83746735 0.30755928 91.95451927 0.31113815 C95.92040182 0.31939927 99.8858397 0.35361108 103.8515625 0.390625 C105.01399979 0.39083649 106.17643707 0.39104797 107.37409973 0.39126587 C116.62740084 0.51193847 125.44069176 1.72347749 132.74926758 7.84228516 C137.31292618 13.15001853 138.8826573 17.32870367 139.06176758 24.34228516 C139.1178418 25.74994141 139.1178418 25.74994141 139.17504883 27.18603516 C137.93988916 37.79254387 132.84099161 47.00516548 127.74926758 56.21728516 C127.07814849 57.44792998 126.40791497 58.67905811 125.73852539 59.91064453 C124.39004916 62.38790824 123.03620014 64.86209921 121.67700195 67.33349609 C119.93554397 70.50011699 118.20725747 73.67372164 116.48364258 76.85009766 C114.06610357 81.30255759 111.63743428 85.74876481 109.2019043 90.19140625 C107.66453333 92.99691448 106.13071542 95.80434993 104.59692383 98.61181641 C103.58539136 100.45957464 102.57367926 102.30723456 101.56176758 104.15478516 C101.09158203 105.01587891 100.62139648 105.87697266 100.13696289 106.76416016 C99.70609375 107.54919922 99.27522461 108.33423828 98.83129883 109.14306641 C98.45207275 109.8356958 98.07284668 110.5283252 97.68212891 111.24194336 C96.74926758 112.84228516 96.74926758 112.84228516 95.74926758 113.84228516 C93.728335 113.9575352 91.70334141 114.00198266 89.67919922 114.01928711 C87.72434349 114.03853996 87.72434349 114.03853996 85.72999573 114.05818176 C84.28980899 114.0663609 82.84961791 114.07380235 81.40942383 114.08056641 C80.31917813 114.0866797 80.31917813 114.0866797 79.20690727 114.09291649 C75.34122881 114.11383766 71.47558621 114.1280989 67.60986328 114.13745117 C64.44136817 114.14622594 61.27332389 114.16688448 58.10498047 114.19897461 C16.6863824 114.60927149 16.6863824 114.60927149 1.18676758 106.09228516 C0.5396582 105.75374512 -0.10745117 105.41520508 -0.77416992 105.06640625 C-6.19677186 102.11739102 -11.24032066 98.58793908 -15.25073242 93.84228516 C-15.25073242 93.18228516 -15.25073242 92.52228516 -15.25073242 91.84228516 C-15.91073242 91.84228516 -16.57073242 91.84228516 -17.25073242 91.84228516 C-28.1945749 71.59227734 -31.6152913 52.39019014 -25.25073242 29.84228516 C-24.04522192 25.95600851 -22.73730755 22.11397818 -21.37573242 18.27978516 C-21.04831055 17.35141846 -20.72088867 16.42305176 -20.38354492 15.46655273 C-20.05354492 14.57863037 -19.72354492 13.69070801 -19.38354492 12.77587891 C-19.09366699 11.99269287 -18.80378906 11.20950684 -18.50512695 10.40258789 C-18.09117676 9.55768799 -17.67722656 8.71278809 -17.25073242 7.84228516 C-16.99149774 7.26423472 -16.73226305 6.68618429 -16.46517277 6.09061718 C-12.63485677 -0.82932193 -7.27508336 -0.12690461 0 0 Z " fill="#000000" transform="translate(128.250732421875,191.15771484375)"/>
<path d="M0 0 C16.36875616 -0.04683108 32.73749042 -0.08204308 49.10629749 -0.10362434 C56.70752522 -0.11391361 64.30871119 -0.12792872 71.90991211 -0.15087891 C78.53922213 -0.17088504 85.16850188 -0.1837335 91.79784125 -0.18817699 C95.30429469 -0.1907722 98.81066161 -0.19682243 102.31708717 -0.21146011 C106.24241315 -0.22771186 110.16765637 -0.22797508 114.09301758 -0.22705078 C115.24101334 -0.23424133 116.38900909 -0.24143188 117.5717926 -0.24884033 C128.48726803 -0.22114844 138.63094618 0.36171595 147 8 C151.99604729 14.40767284 152.59282573 21.15645953 152 29 C149.42535256 44.24191287 138.80687258 59.17082272 131.5234375 72.5234375 C129.07235849 77.01869159 126.6414641 81.52429366 124.2265625 86.0390625 C123.60410645 87.20131348 122.98165039 88.36356445 122.34033203 89.56103516 C121.1439824 91.79661236 119.94953992 94.03321157 118.75732422 96.27099609 C118.20834473 97.29531738 117.65936523 98.31963867 117.09375 99.375 C116.61615234 100.26960938 116.13855469 101.16421875 115.64648438 102.0859375 C114.83147461 103.52839844 114.83147461 103.52839844 114 105 C113.74133148 105.69257401 113.48266296 106.38514801 113.21615601 107.09870911 C112.07238373 109.65744072 111.1381105 111.16760126 109 113 C104.08439537 114.18066392 99.18633883 114.00419913 94.1640625 113.88671875 C92.68257833 113.87939775 91.20107573 113.87520414 89.71957397 113.87397766 C86.61027372 113.86321264 83.50281833 113.8261563 80.39404297 113.76831055 C76.45276817 113.69539495 72.51309441 113.66911755 68.57120705 113.66089153 C65.5062637 113.65219851 62.441637 113.62692857 59.3768425 113.59613991 C57.92673651 113.58177427 56.47659962 113.57019663 55.0264473 113.56171227 C35.24407446 113.40419289 15.62763448 109.47242502 0.5234375 95.75 C-11.41467475 83.29283939 -15.52986777 68.26516982 -15.421875 51.36767578 C-14.93034274 35.06626693 -9.6857939 19.2393518 -2.39624023 4.75976562 C-1.72261696 3.41960388 -1.72261696 3.41960388 -1.03538513 2.05236816 C-0.52286949 1.03644592 -0.52286949 1.03644592 0 0 Z " fill="#000000" transform="translate(228,311)"/>
<path d="M0 0 C2.70767646 0.01121595 5.41535932 0.01931566 8.12304688 0.02734375 C14.68627872 0.04914075 21.24937181 0.0824127 27.8125 0.125 C28.1425 0.785 28.4725 1.445 28.8125 2.125 C27.93896484 4.17431641 27.93896484 4.17431641 26.5234375 6.7265625 C26.00080322 7.67909912 25.47816895 8.63163574 24.93969727 9.61303711 C24.36147217 10.64823486 23.78324707 11.68343262 23.1875 12.75 C21.97498714 14.95167244 20.76275511 17.15349956 19.55078125 19.35546875 C18.61419678 21.04808838 18.61419678 21.04808838 17.65869141 22.77490234 C15.39773009 26.87764119 13.1751162 31.0002088 10.95654297 35.12597656 C8.81814291 39.09644212 6.66097074 43.05656304 4.50244141 47.01611328 C3.33833657 49.15764911 2.17945857 51.30203168 1.02490234 53.44873047 C-0.78280053 56.80644548 -2.60847101 60.15386367 -4.4375 63.5 C-4.97947021 64.51570068 -5.52144043 65.53140137 -6.07983398 66.57788086 C-9.96911222 73.63520405 -14.58249337 79.35150481 -20.1875 85.125 C-21.033125 86.011875 -21.87875 86.89875 -22.75 87.8125 C-23.554375 88.575625 -24.35875 89.33875 -25.1875 90.125 C-25.72246094 90.64320313 -26.25742187 91.16140625 -26.80859375 91.6953125 C-42.12892714 105.90086072 -60.90368293 113.65137061 -81.64526367 113.46557617 C-82.94409485 113.46601425 -84.24292603 113.46645233 -85.58111572 113.46690369 C-89.1073395 113.46775677 -92.6332508 113.45024396 -96.15940261 113.42918181 C-99.85757937 113.41029901 -103.55576501 113.40865551 -107.25398254 113.40510559 C-114.24125489 113.39581893 -121.22838471 113.37125148 -128.21559459 113.34105712 C-136.17698395 113.30740721 -144.13838047 113.29100061 -152.09982336 113.27597082 C-168.46246537 113.24469847 -184.82496444 113.19200454 -201.1875 113.125 C-199.50339826 108.69921651 -197.26476581 104.9138941 -194.625 101 C-193.9589978 100.00867065 -193.9589978 100.00867065 -193.27954102 98.99731445 C-187.23804265 90.1246357 -180.2975475 82.10875531 -173.03515625 74.21875 C-171.04804661 72.06166737 -171.04804661 72.06166737 -169.1875 69.125 C-168.5275 69.125 -167.8675 69.125 -167.1875 69.125 C-167.1875 68.465 -167.1875 67.805 -167.1875 67.125 C-165.82421875 65.75 -165.82421875 65.75 -163.875 64.125 C-160.55455251 61.31449907 -157.35791415 58.41605853 -154.1875 55.4375 C-136.79271442 39.66305061 -116.50879573 26.89204311 -95.1875 17.125 C-94.00929688 16.58359375 -92.83109375 16.0421875 -91.6171875 15.484375 C-61.44730009 2.12053226 -32.66414124 -0.21271727 0 0 Z " fill="#000000" transform="translate(320.1875,72.875)"/>
</svg>
